<svg xmlns="http://www.w3.org/2000/svg" xmlns:xlink="http://www.w3.org/1999/xlink" contentStyleType="text/css" data-diagram-type="CLASS" height="482px" preserveAspectRatio="none" style="width:2046px;height:482px;" version="1.1" viewBox="0 0 2046 482" width="2046px" zoomAndPan="magnify"><title>Hirarki Objek: Keran-Ember-Air (Scene 3D)</title><defs/><g><g class="title" data-source-line="17"><text fill="#000000" font-family="sans-serif" font-size="14" font-weight="bold" lengthAdjust="spacing" textLength="337.3945" x="847.5482" y="22.9951">Hirarki Objek: Keran-Ember-Air (Scene 3D)</text></g><!--class Scene--><g class="entity" data-entity="Scene" data-source-line="20" data-uid="ent0002" id="entity_Scene"><rect fill="#0F1520" height="48" rx="5" ry="5" style="stroke:#2D333B;stroke-width:0.5;" width="74.6836" x="1016.67" y="44.2969"/><ellipse cx="1031.67" cy="60.2969" fill="#ADD1B2" rx="11" ry="11" style="stroke:#181818;stroke-width:1;"/><path d="M1034.6388,65.9375 Q1034.0606,66.2344 1033.42,66.375 Q1032.7794,66.5313 1032.0763,66.5313 Q1029.5763,66.5313 1028.2481,64.8906 Q1026.9356,63.2344 1026.9356,60.1094 Q1026.9356,56.9844 1028.2481,55.3281 Q1029.5763,53.6719 1032.0763,53.6719 Q1032.7794,53.6719 1033.42,53.8281 Q1034.0763,53.9844 1034.6388,54.2813 L1034.6388,57 Q1034.0138,56.4219 1033.42,56.1563 Q1032.8263,55.875 1032.2013,55.875 Q1030.8575,55.875 1030.17,56.9531 Q1029.4825,58.0156 1029.4825,60.1094 Q1029.4825,62.2031 1030.17,63.2813 Q1030.8575,64.3438 1032.2013,64.3438 Q1032.8263,64.3438 1033.42,64.0781 Q1034.0138,63.7969 1034.6388,63.2188 L1034.6388,65.9375 Z " fill="#000000"/><text fill="#E6EDF3" font-family="sans-serif" font-size="14" lengthAdjust="spacing" textLength="42.6836" x="1045.67" y="65.1436">Scene</text><line style="stroke:#2D333B;stroke-width:0.5;" x1="1017.67" x2="1090.3536" y1="76.2969" y2="76.2969"/><line style="stroke:#2D333B;stroke-width:0.5;" x1="1017.67" x2="1090.3536" y1="84.2969" y2="84.2969"/></g><!--class Wall--><g class="entity" data-entity="Wall" data-source-line="21" data-uid="ent0003" id="entity_Wall"><rect fill="#0F1520" height="48" rx="5" ry="5" style="stroke:#2D333B;stroke-width:0.5;" width="62.2012" x="299.91" y="169.2969"/><ellipse cx="314.91" cy="185.2969" fill="#ADD1B2" rx="11" ry="11" style="stroke:#181818;stroke-width:1;"/><path d="M317.8788,190.9375 Q317.3006,191.2344 316.66,191.375 Q316.0194,191.5313 315.3163,191.5313 Q312.8163,191.5313 311.4881,189.8906 Q310.1756,188.2344 310.1756,185.1094 Q310.1756,181.9844 311.4881,180.3281 Q312.8163,178.6719 315.3163,178.6719 Q316.0194,178.6719 316.66,178.8281 Q317.3163,178.9844 317.8788,179.2813 L317.8788,182 Q317.2538,181.4219 316.66,181.1563 Q316.0663,180.875 315.4413,180.875 Q314.0975,180.875 313.41,181.9531 Q312.7225,183.0156 312.7225,185.1094 Q312.7225,187.2031 313.41,188.2813 Q314.0975,189.3438 315.4413,189.3438 Q316.0663,189.3438 316.66,189.0781 Q317.2538,188.7969 317.8788,188.2188 L317.8788,190.9375 Z " fill="#000000"/><text fill="#E6EDF3" font-family="sans-serif" font-size="14" lengthAdjust="spacing" textLength="30.2012" x="328.91" y="190.1436">Wall</text><line style="stroke:#2D333B;stroke-width:0.5;" x1="300.91" x2="361.1112" y1="201.2969" y2="201.2969"/><line style="stroke:#2D333B;stroke-width:0.5;" x1="300.91" x2="361.1112" y1="209.2969" y2="209.2969"/></g><!--class FaucetRoot--><g class="entity" data-entity="FaucetRoot" data-source-line="22" data-uid="ent0004" id="entity_FaucetRoot"><rect fill="#0F1520" height="48" rx="5" ry="5" style="stroke:#2D333B;stroke-width:0.5;" width="111.6523" x="397.19" y="169.2969"/><ellipse cx="412.19" cy="185.2969" fill="#ADD1B2" rx="11" ry="11" style="stroke:#181818;stroke-width:1;"/><path d="M415.1588,190.9375 Q414.5806,191.2344 413.94,191.375 Q413.2994,191.5313 412.5963,191.5313 Q410.0963,191.5313 408.7681,189.8906 Q407.4556,188.2344 407.4556,185.1094 Q407.4556,181.9844 408.7681,180.3281 Q410.0963,178.6719 412.5963,178.6719 Q413.2994,178.6719 413.94,178.8281 Q414.5963,178.9844 415.1588,179.2813 L415.1588,182 Q414.5338,181.4219 413.94,181.1563 Q413.3463,180.875 412.7213,180.875 Q411.3775,180.875 410.69,181.9531 Q410.0025,183.0156 410.0025,185.1094 Q410.0025,187.2031 410.69,188.2813 Q411.3775,189.3438 412.7213,189.3438 Q413.3463,189.3438 413.94,189.0781 Q414.5338,188.7969 415.1588,188.2188 L415.1588,190.9375 Z " fill="#000000"/><text fill="#E6EDF3" font-family="sans-serif" font-size="14" lengthAdjust="spacing" textLength="79.6523" x="426.19" y="190.1436">FaucetRoot</text><line style="stroke:#2D333B;stroke-width:0.5;" x1="398.19" x2="507.8423" y1="201.2969" y2="201.2969"/><line style="stroke:#2D333B;stroke-width:0.5;" x1="398.19" x2="507.8423" y1="209.2969" y2="209.2969"/></g><!--class Bucket--><g class="entity" data-entity="Bucket" data-source-line="23" data-uid="ent0005" id="entity_Bucket"><rect fill="#0F1520" height="48" rx="5" ry="5" style="stroke:#2D333B;stroke-width:0.5;" width="80.3848" x="1013.82" y="169.2969"/><ellipse cx="1028.82" cy="185.2969" fill="#ADD1B2" rx="11" ry="11" style="stroke:#181818;stroke-width:1;"/><path d="M1031.7888,190.9375 Q1031.2106,191.2344 1030.57,191.375 Q1029.9294,191.5313 1029.2263,191.5313 Q1026.7263,191.5313 1025.3981,189.8906 Q1024.0856,188.2344 1024.0856,185.1094 Q1024.0856,181.9844 1025.3981,180.3281 Q1026.7263,178.6719 1029.2263,178.6719 Q1029.9294,178.6719 1030.57,178.8281 Q1031.2263,178.9844 1031.7888,179.2813 L1031.7888,182 Q1031.1638,181.4219 1030.57,181.1563 Q1029.9763,180.875 1029.3513,180.875 Q1028.0075,180.875 1027.32,181.9531 Q1026.6325,183.0156 1026.6325,185.1094 Q1026.6325,187.2031 1027.32,188.2813 Q1028.0075,189.3438 1029.3513,189.3438 Q1029.9763,189.3438 1030.57,189.0781 Q1031.1638,188.7969 1031.7888,188.2188 L1031.7888,190.9375 Z " fill="#000000"/><text fill="#E6EDF3" font-family="sans-serif" font-size="14" lengthAdjust="spacing" textLength="48.3848" x="1042.82" y="190.1436">Bucket</text><line style="stroke:#2D333B;stroke-width:0.5;" x1="1014.82" x2="1093.2048" y1="201.2969" y2="201.2969"/><line style="stroke:#2D333B;stroke-width:0.5;" x1="1014.82" x2="1093.2048" y1="209.2969" y2="209.2969"/></g><!--class WaterEmitter--><g class="entity" data-entity="WaterEmitter" data-source-line="24" data-uid="ent0006" id="entity_WaterEmitter"><rect fill="#0F1520" height="48" rx="5" ry="5" style="stroke:#2D333B;stroke-width:0.5;" width="126.001" x="1451.01" y="169.2969"/><ellipse cx="1466.01" cy="185.2969" fill="#ADD1B2" rx="11" ry="11" style="stroke:#181818;stroke-width:1;"/><path d="M1468.9788,190.9375 Q1468.4006,191.2344 1467.76,191.375 Q1467.1194,191.5313 1466.4163,191.5313 Q1463.9163,191.5313 1462.5881,189.8906 Q1461.2756,188.2344 1461.2756,185.1094 Q1461.2756,181.9844 1462.5881,180.3281 Q1463.9163,178.6719 1466.4163,178.6719 Q1467.1194,178.6719 1467.76,178.8281 Q1468.4163,178.9844 1468.9788,179.2813 L1468.9788,182 Q1468.3538,181.4219 1467.76,181.1563 Q1467.1663,180.875 1466.5413,180.875 Q1465.1975,180.875 1464.51,181.9531 Q1463.8225,183.0156 1463.8225,185.1094 Q1463.8225,187.2031 1464.51,188.2813 Q1465.1975,189.3438 1466.5413,189.3438 Q1467.1663,189.3438 1467.76,189.0781 Q1468.3538,188.7969 1468.9788,188.2188 L1468.9788,190.9375 Z " fill="#000000"/><text fill="#E6EDF3" font-family="sans-serif" font-size="14" lengthAdjust="spacing" textLength="94.001" x="1480.01" y="190.1436">WaterEmitter</text><line style="stroke:#2D333B;stroke-width:0.5;" x1="1452.01" x2="1576.011" y1="201.2969" y2="201.2969"/><line style="stroke:#2D333B;stroke-width:0.5;" x1="1452.01" x2="1576.011" y1="209.2969" y2="209.2969"/></g><!--class Lights--><g class="entity" data-entity="Lights" data-source-line="25" data-uid="ent0007" id="entity_Lights"><rect fill="#0F1520" height="48" rx="5" ry="5" style="stroke:#2D333B;stroke-width:0.5;" width="74.2324" x="1748.9" y="169.2969"/><ellipse cx="1763.9" cy="185.2969" fill="#ADD1B2" rx="11" ry="11" style="stroke:#181818;stroke-width:1;"/><path d="M1766.8688,190.9375 Q1766.2906,191.2344 1765.65,191.375 Q1765.0094,191.5313 1764.3063,191.5313 Q1761.8063,191.5313 1760.4781,189.8906 Q1759.1656,188.2344 1759.1656,185.1094 Q1759.1656,181.9844 1760.4781,180.3281 Q1761.8063,178.6719 1764.3063,178.6719 Q1765.0094,178.6719 1765.65,178.8281 Q1766.3063,178.9844 1766.8688,179.2813 L1766.8688,182 Q1766.2438,181.4219 1765.65,181.1563 Q1765.0563,180.875 1764.4313,180.875 Q1763.0875,180.875 1762.4,181.9531 Q1761.7125,183.0156 1761.7125,185.1094 Q1761.7125,187.2031 1762.4,188.2813 Q1763.0875,189.3438 1764.4313,189.3438 Q1765.0563,189.3438 1765.65,189.0781 Q1766.2438,188.7969 1766.8688,188.2188 L1766.8688,190.9375 Z " fill="#000000"/><text fill="#E6EDF3" font-family="sans-serif" font-size="14" lengthAdjust="spacing" textLength="42.2324" x="1777.9" y="190.1436">Lights</text><line style="stroke:#2D333B;stroke-width:0.5;" x1="1749.9" x2="1822.1324" y1="201.2969" y2="201.2969"/><line style="stroke:#2D333B;stroke-width:0.5;" x1="1749.9" x2="1822.1324" y1="209.2969" y2="209.2969"/></g><!--class Flange--><g class="entity" data-entity="Flange" data-source-line="28" data-uid="ent0008" id="entity_Flange"><rect fill="#0F1520" height="48" rx="5" ry="5" style="stroke:#2D333B;stroke-width:0.5;" width="78.8945" x="9.57" y="298.4369"/><ellipse cx="24.57" cy="314.4369" fill="#ADD1B2" rx="11" ry="11" style="stroke:#181818;stroke-width:1;"/><path d="M27.5388,320.0775 Q26.9606,320.3744 26.32,320.515 Q25.6794,320.6713 24.9763,320.6713 Q22.4763,320.6713 21.1481,319.0306 Q19.8356,317.3744 19.8356,314.2494 Q19.8356,311.1244 21.1481,309.4681 Q22.4763,307.8119 24.9763,307.8119 Q25.6794,307.8119 26.32,307.9681 Q26.9763,308.1244 27.5388,308.4213 L27.5388,311.14 Q26.9138,310.5619 26.32,310.2963 Q25.7263,310.015 25.1013,310.015 Q23.7575,310.015 23.07,311.0931 Q22.3825,312.1556 22.3825,314.2494 Q22.3825,316.3431 23.07,317.4213 Q23.7575,318.4838 25.1013,318.4838 Q25.7263,318.4838 26.32,318.2181 Q26.9138,317.9369 27.5388,317.3588 L27.5388,320.0775 Z " fill="#000000"/><text fill="#E6EDF3" font-family="sans-serif" font-size="14" lengthAdjust="spacing" textLength="46.8945" x="38.57" y="319.2836">Flange</text><line style="stroke:#2D333B;stroke-width:0.5;" x1="10.57" x2="87.4645" y1="330.4369" y2="330.4369"/><line style="stroke:#2D333B;stroke-width:0.5;" x1="10.57" x2="87.4645" y1="338.4369" y2="338.4369"/></g><!--class Stub--><g class="entity" data-entity="Stub" data-source-line="29" data-uid="ent0009" id="entity_Stub"><rect fill="#0F1520" height="48" rx="5" ry="5" style="stroke:#2D333B;stroke-width:0.5;" width="64.1357" x="124.95" y="298.4369"/><ellipse cx="139.95" cy="314.4369" fill="#ADD1B2" rx="11" ry="11" style="stroke:#181818;stroke-width:1;"/><path d="M142.9188,320.0775 Q142.3406,320.3744 141.7,320.515 Q141.0594,320.6713 140.3563,320.6713 Q137.8563,320.6713 136.5281,319.0306 Q135.2156,317.3744 135.2156,314.2494 Q135.2156,311.1244 136.5281,309.4681 Q137.8563,307.8119 140.3563,307.8119 Q141.0594,307.8119 141.7,307.9681 Q142.3563,308.1244 142.9188,308.4213 L142.9188,311.14 Q142.2938,310.5619 141.7,310.2963 Q141.1063,310.015 140.4813,310.015 Q139.1375,310.015 138.45,311.0931 Q137.7625,312.1556 137.7625,314.2494 Q137.7625,316.3431 138.45,317.4213 Q139.1375,318.4838 140.4813,318.4838 Q141.1063,318.4838 141.7,318.2181 Q142.2938,317.9369 142.9188,317.3588 L142.9188,320.0775 Z " fill="#000000"/><text fill="#E6EDF3" font-family="sans-serif" font-size="14" lengthAdjust="spacing" textLength="32.1357" x="153.95" y="319.2836">Stub</text><line style="stroke:#2D333B;stroke-width:0.5;" x1="125.95" x2="188.0857" y1="330.4369" y2="330.4369"/><line style="stroke:#2D333B;stroke-width:0.5;" x1="125.95" x2="188.0857" y1="338.4369" y2="338.4369"/></g><!--class BulgeBody--><g class="entity" data-entity="BulgeBody" data-source-line="30" data-uid="ent0010" id="entity_BulgeBody"><rect fill="#0F1520" height="48" rx="5" ry="5" style="stroke:#2D333B;stroke-width:0.5;" width="107.209" x="224.41" y="298.4369"/><ellipse cx="239.41" cy="314.4369" fill="#ADD1B2" rx="11" ry="11" style="stroke:#181818;stroke-width:1;"/><path d="M242.3788,320.0775 Q241.8006,320.3744 241.16,320.515 Q240.5194,320.6713 239.8163,320.6713 Q237.3163,320.6713 235.9881,319.0306 Q234.6756,317.3744 234.6756,314.2494 Q234.6756,311.1244 235.9881,309.4681 Q237.3163,307.8119 239.8163,307.8119 Q240.5194,307.8119 241.16,307.9681 Q241.8163,308.1244 242.3788,308.4213 L242.3788,311.14 Q241.7538,310.5619 241.16,310.2963 Q240.5663,310.015 239.9413,310.015 Q238.5975,310.015 237.91,311.0931 Q237.2225,312.1556 237.2225,314.2494 Q237.2225,316.3431 237.91,317.4213 Q238.5975,318.4838 239.9413,318.4838 Q240.5663,318.4838 241.16,318.2181 Q241.7538,317.9369 242.3788,317.3588 L242.3788,320.0775 Z " fill="#000000"/><text fill="#E6EDF3" font-family="sans-serif" font-size="14" lengthAdjust="spacing" textLength="75.209" x="253.41" y="319.2836">BulgeBody</text><line style="stroke:#2D333B;stroke-width:0.5;" x1="225.41" x2="330.619" y1="330.4369" y2="330.4369"/><line style="stroke:#2D333B;stroke-width:0.5;" x1="225.41" x2="330.619" y1="338.4369" y2="338.4369"/></g><!--class Joint--><g class="entity" data-entity="Joint" data-source-line="31" data-uid="ent0011" id="entity_Joint"><rect fill="#0F1520" height="48" rx="5" ry="5" style="stroke:#2D333B;stroke-width:0.5;" width="62.9463" x="366.54" y="298.4369"/><ellipse cx="381.54" cy="314.4369" fill="#ADD1B2" rx="11" ry="11" style="stroke:#181818;stroke-width:1;"/><path d="M384.5088,320.0775 Q383.9306,320.3744 383.29,320.515 Q382.6494,320.6713 381.9463,320.6713 Q379.4463,320.6713 378.1181,319.0306 Q376.8056,317.3744 376.8056,314.2494 Q376.8056,311.1244 378.1181,309.4681 Q379.4463,307.8119 381.9463,307.8119 Q382.6494,307.8119 383.29,307.9681 Q383.9463,308.1244 384.5088,308.4213 L384.5088,311.14 Q383.8838,310.5619 383.29,310.2963 Q382.6963,310.015 382.0713,310.015 Q380.7275,310.015 380.04,311.0931 Q379.3525,312.1556 379.3525,314.2494 Q379.3525,316.3431 380.04,317.4213 Q380.7275,318.4838 382.0713,318.4838 Q382.6963,318.4838 383.29,318.2181 Q383.8838,317.9369 384.5088,317.3588 L384.5088,320.0775 Z " fill="#000000"/><text fill="#E6EDF3" font-family="sans-serif" font-size="14" lengthAdjust="spacing" textLength="30.9463" x="395.54" y="319.2836">Joint</text><line style="stroke:#2D333B;stroke-width:0.5;" x1="367.54" x2="428.4863" y1="330.4369" y2="330.4369"/><line style="stroke:#2D333B;stroke-width:0.5;" x1="367.54" x2="428.4863" y1="338.4369" y2="338.4369"/></g><!--class Spout--><g class="entity" data-entity="Spout" data-source-line="32" data-uid="ent0012" id="entity_Spout"><rect fill="#0F1520" height="48" rx="5" ry="5" style="stroke:#2D333B;stroke-width:0.5;" width="72.7012" x="464.66" y="298.4369"/><ellipse cx="479.66" cy="314.4369" fill="#ADD1B2" rx="11" ry="11" style="stroke:#181818;stroke-width:1;"/><path d="M482.6288,320.0775 Q482.0506,320.3744 481.41,320.515 Q480.7694,320.6713 480.0663,320.6713 Q477.5663,320.6713 476.2381,319.0306 Q474.9256,317.3744 474.9256,314.2494 Q474.9256,311.1244 476.2381,309.4681 Q477.5663,307.8119 480.0663,307.8119 Q480.7694,307.8119 481.41,307.9681 Q482.0663,308.1244 482.6288,308.4213 L482.6288,311.14 Q482.0038,310.5619 481.41,310.2963 Q480.8163,310.015 480.1913,310.015 Q478.8475,310.015 478.16,311.0931 Q477.4725,312.1556 477.4725,314.2494 Q477.4725,316.3431 478.16,317.4213 Q478.8475,318.4838 480.1913,318.4838 Q480.8163,318.4838 481.41,318.2181 Q482.0038,317.9369 482.6288,317.3588 L482.6288,320.0775 Z " fill="#000000"/><text fill="#E6EDF3" font-family="sans-serif" font-size="14" lengthAdjust="spacing" textLength="40.7012" x="493.66" y="319.2836">Spout</text><line style="stroke:#2D333B;stroke-width:0.5;" x1="465.66" x2="536.3612" y1="330.4369" y2="330.4369"/><line style="stroke:#2D333B;stroke-width:0.5;" x1="465.66" x2="536.3612" y1="338.4369" y2="338.4369"/></g><!--class Aerator--><g class="entity" data-entity="Aerator" data-source-line="33" data-uid="ent0013" id="entity_Aerator"><rect fill="#0F1520" height="48" rx="5" ry="5" style="stroke:#2D333B;stroke-width:0.5;" width="84.3359" x="462.85" y="427.5669"/><ellipse cx="477.85" cy="443.5669" fill="#ADD1B2" rx="11" ry="11" style="stroke:#181818;stroke-width:1;"/><path d="M480.8188,449.2075 Q480.2406,449.5044 479.6,449.645 Q478.9594,449.8013 478.2563,449.8013 Q475.7563,449.8013 474.4281,448.1606 Q473.1156,446.5044 473.1156,443.3794 Q473.1156,440.2544 474.4281,438.5981 Q475.7563,436.9419 478.2563,436.9419 Q478.9594,436.9419 479.6,437.0981 Q480.2563,437.2544 480.8188,437.5513 L480.8188,440.27 Q480.1938,439.6919 479.6,439.4263 Q479.0063,439.145 478.3813,439.145 Q477.0375,439.145 476.35,440.2231 Q475.6625,441.2856 475.6625,443.3794 Q475.6625,445.4731 476.35,446.5513 Q477.0375,447.6138 478.3813,447.6138 Q479.0063,447.6138 479.6,447.3481 Q480.1938,447.0669 480.8188,446.4888 L480.8188,449.2075 Z " fill="#000000"/><text fill="#E6EDF3" font-family="sans-serif" font-size="14" lengthAdjust="spacing" textLength="52.3359" x="491.85" y="448.4136">Aerator</text><line style="stroke:#2D333B;stroke-width:0.5;" x1="463.85" x2="546.1859" y1="459.5669" y2="459.5669"/><line style="stroke:#2D333B;stroke-width:0.5;" x1="463.85" x2="546.1859" y1="467.5669" y2="467.5669"/></g><!--class SpoutTip--><g class="entity" data-entity="SpoutTip" data-source-line="34" data-uid="ent0014" id="entity_SpoutTip"><rect fill="#0F1520" height="48" rx="5" ry="5" style="stroke:#2D333B;stroke-width:0.5;" width="94.0293" x="7" y="427.5669"/><ellipse cx="22" cy="443.5669" fill="#ADD1B2" rx="11" ry="11" style="stroke:#181818;stroke-width:1;"/><path d="M24.9688,449.2075 Q24.3906,449.5044 23.75,449.645 Q23.1094,449.8013 22.4063,449.8013 Q19.9063,449.8013 18.5781,448.1606 Q17.2656,446.5044 17.2656,443.3794 Q17.2656,440.2544 18.5781,438.5981 Q19.9063,436.9419 22.4063,436.9419 Q23.1094,436.9419 23.75,437.0981 Q24.4063,437.2544 24.9688,437.5513 L24.9688,440.27 Q24.3438,439.6919 23.75,439.4263 Q23.1563,439.145 22.5313,439.145 Q21.1875,439.145 20.5,440.2231 Q19.8125,441.2856 19.8125,443.3794 Q19.8125,445.4731 20.5,446.5513 Q21.1875,447.6138 22.5313,447.6138 Q23.1563,447.6138 23.75,447.3481 Q24.3438,447.0669 24.9688,446.4888 L24.9688,449.2075 Z " fill="#000000"/><text fill="#E6EDF3" font-family="sans-serif" font-size="14" lengthAdjust="spacing" textLength="62.0293" x="36" y="448.4136">SpoutTip</text><line style="stroke:#2D333B;stroke-width:0.5;" x1="8" x2="100.0293" y1="459.5669" y2="459.5669"/><line style="stroke:#2D333B;stroke-width:0.5;" x1="8" x2="100.0293" y1="467.5669" y2="467.5669"/></g><!--class HandlePivot--><g class="entity" data-entity="HandlePivot" data-source-line="35" data-uid="ent0015" id="entity_HandlePivot"><rect fill="#0F1520" height="48" rx="5" ry="5" style="stroke:#2D333B;stroke-width:0.5;" width="116.041" x="571.99" y="298.4369"/><ellipse cx="586.99" cy="314.4369" fill="#ADD1B2" rx="11" ry="11" style="stroke:#181818;stroke-width:1;"/><path d="M589.9588,320.0775 Q589.3806,320.3744 588.74,320.515 Q588.0994,320.6713 587.3963,320.6713 Q584.8963,320.6713 583.5681,319.0306 Q582.2556,317.3744 582.2556,314.2494 Q582.2556,311.1244 583.5681,309.4681 Q584.8963,307.8119 587.3963,307.8119 Q588.0994,307.8119 588.74,307.9681 Q589.3963,308.1244 589.9588,308.4213 L589.9588,311.14 Q589.3338,310.5619 588.74,310.2963 Q588.1463,310.015 587.5213,310.015 Q586.1775,310.015 585.49,311.0931 Q584.8025,312.1556 584.8025,314.2494 Q584.8025,316.3431 585.49,317.4213 Q586.1775,318.4838 587.5213,318.4838 Q588.1463,318.4838 588.74,318.2181 Q589.3338,317.9369 589.9588,317.3588 L589.9588,320.0775 Z " fill="#000000"/><text fill="#E6EDF3" font-family="sans-serif" font-size="14" lengthAdjust="spacing" textLength="84.041" x="600.99" y="319.2836">HandlePivot</text><line style="stroke:#2D333B;stroke-width:0.5;" x1="572.99" x2="687.031" y1="330.4369" y2="330.4369"/><line style="stroke:#2D333B;stroke-width:0.5;" x1="572.99" x2="687.031" y1="338.4369" y2="338.4369"/></g><!--class Lever--><g class="entity" data-entity="Lever" data-source-line="36" data-uid="ent0016" id="entity_Lever"><rect fill="#0F1520" height="48" rx="5" ry="5" style="stroke:#2D333B;stroke-width:0.5;" width="71.0674" x="586.48" y="427.5669"/><ellipse cx="601.48" cy="443.5669" fill="#ADD1B2" rx="11" ry="11" style="stroke:#181818;stroke-width:1;"/><path d="M604.4488,449.2075 Q603.8706,449.5044 603.23,449.645 Q602.5894,449.8013 601.8863,449.8013 Q599.3863,449.8013 598.0581,448.1606 Q596.7456,446.5044 596.7456,443.3794 Q596.7456,440.2544 598.0581,438.5981 Q599.3863,436.9419 601.8863,436.9419 Q602.5894,436.9419 603.23,437.0981 Q603.8863,437.2544 604.4488,437.5513 L604.4488,440.27 Q603.8238,439.6919 603.23,439.4263 Q602.6363,439.145 602.0113,439.145 Q600.6675,439.145 599.98,440.2231 Q599.2925,441.2856 599.2925,443.3794 Q599.2925,445.4731 599.98,446.5513 Q600.6675,447.6138 602.0113,447.6138 Q602.6363,447.6138 603.23,447.3481 Q603.8238,447.0669 604.4488,446.4888 L604.4488,449.2075 Z " fill="#000000"/><text fill="#E6EDF3" font-family="sans-serif" font-size="14" lengthAdjust="spacing" textLength="39.0674" x="615.48" y="448.4136">Lever</text><line style="stroke:#2D333B;stroke-width:0.5;" x1="587.48" x2="656.5474" y1="459.5669" y2="459.5669"/><line style="stroke:#2D333B;stroke-width:0.5;" x1="587.48" x2="656.5474" y1="467.5669" y2="467.5669"/></g><!--class Knob--><g class="entity" data-entity="Knob" data-source-line="37" data-uid="ent0017" id="entity_Knob"><rect fill="#0F1520" height="48" rx="5" ry="5" style="stroke:#2D333B;stroke-width:0.5;" width="67.5059" x="698.26" y="427.5669"/><ellipse cx="713.26" cy="443.5669" fill="#ADD1B2" rx="11" ry="11" style="stroke:#181818;stroke-width:1;"/><path d="M716.2288,449.2075 Q715.6506,449.5044 715.01,449.645 Q714.3694,449.8013 713.6663,449.8013 Q711.1663,449.8013 709.8381,448.1606 Q708.5256,446.5044 708.5256,443.3794 Q708.5256,440.2544 709.8381,438.5981 Q711.1663,436.9419 713.6663,436.9419 Q714.3694,436.9419 715.01,437.0981 Q715.6663,437.2544 716.2288,437.5513 L716.2288,440.27 Q715.6038,439.6919 715.01,439.4263 Q714.4163,439.145 713.7913,439.145 Q712.4475,439.145 711.76,440.2231 Q711.0725,441.2856 711.0725,443.3794 Q711.0725,445.4731 711.76,446.5513 Q712.4475,447.6138 713.7913,447.6138 Q714.4163,447.6138 715.01,447.3481 Q715.6038,447.0669 716.2288,446.4888 L716.2288,449.2075 Z " fill="#000000"/><text fill="#E6EDF3" font-family="sans-serif" font-size="14" lengthAdjust="spacing" textLength="35.5059" x="727.26" y="448.4136">Knob</text><line style="stroke:#2D333B;stroke-width:0.5;" x1="699.26" x2="764.7659" y1="459.5669" y2="459.5669"/><line style="stroke:#2D333B;stroke-width:0.5;" x1="699.26" x2="764.7659" y1="467.5669" y2="467.5669"/></g><!--class Outer--><g class="entity" data-entity="Outer" data-source-line="40" data-uid="ent0018" id="entity_Outer"><rect fill="#0F1520" height="48" rx="5" ry="5" style="stroke:#2D333B;stroke-width:0.5;" width="71.751" x="723.14" y="298.4369"/><ellipse cx="738.14" cy="314.4369" fill="#ADD1B2" rx="11" ry="11" style="stroke:#181818;stroke-width:1;"/><path d="M741.1088,320.0775 Q740.5306,320.3744 739.89,320.515 Q739.2494,320.6713 738.5463,320.6713 Q736.0463,320.6713 734.7181,319.0306 Q733.4056,317.3744 733.4056,314.2494 Q733.4056,311.1244 734.7181,309.4681 Q736.0463,307.8119 738.5463,307.8119 Q739.2494,307.8119 739.89,307.9681 Q740.5463,308.1244 741.1088,308.4213 L741.1088,311.14 Q740.4838,310.5619 739.89,310.2963 Q739.2963,310.015 738.6713,310.015 Q737.3275,310.015 736.64,311.0931 Q735.9525,312.1556 735.9525,314.2494 Q735.9525,316.3431 736.64,317.4213 Q737.3275,318.4838 738.6713,318.4838 Q739.2963,318.4838 739.89,318.2181 Q740.4838,317.9369 741.1088,317.3588 L741.1088,320.0775 Z " fill="#000000"/><text fill="#E6EDF3" font-family="sans-serif" font-size="14" lengthAdjust="spacing" textLength="39.751" x="752.14" y="319.2836">Outer</text><line style="stroke:#2D333B;stroke-width:0.5;" x1="724.14" x2="793.891" y1="330.4369" y2="330.4369"/><line style="stroke:#2D333B;stroke-width:0.5;" x1="724.14" x2="793.891" y1="338.4369" y2="338.4369"/></g><!--class Inner--><g class="entity" data-entity="Inner" data-source-line="41" data-uid="ent0019" id="entity_Inner"><rect fill="#0F1520" height="48" rx="5" ry="5" style="stroke:#2D333B;stroke-width:0.5;" width="68.2441" x="829.89" y="298.4369"/><ellipse cx="844.89" cy="314.4369" fill="#ADD1B2" rx="11" ry="11" style="stroke:#181818;stroke-width:1;"/><path d="M847.8588,320.0775 Q847.2806,320.3744 846.64,320.515 Q845.9994,320.6713 845.2963,320.6713 Q842.7963,320.6713 841.4681,319.0306 Q840.1556,317.3744 840.1556,314.2494 Q840.1556,311.1244 841.4681,309.4681 Q842.7963,307.8119 845.2963,307.8119 Q845.9994,307.8119 846.64,307.9681 Q847.2963,308.1244 847.8588,308.4213 L847.8588,311.14 Q847.2338,310.5619 846.64,310.2963 Q846.0463,310.015 845.4213,310.015 Q844.0775,310.015 843.39,311.0931 Q842.7025,312.1556 842.7025,314.2494 Q842.7025,316.3431 843.39,317.4213 Q844.0775,318.4838 845.4213,318.4838 Q846.0463,318.4838 846.64,318.2181 Q847.2338,317.9369 847.8588,317.3588 L847.8588,320.0775 Z " fill="#000000"/><text fill="#E6EDF3" font-family="sans-serif" font-size="14" lengthAdjust="spacing" textLength="36.2441" x="858.89" y="319.2836">Inner</text><line style="stroke:#2D333B;stroke-width:0.5;" x1="830.89" x2="897.1341" y1="330.4369" y2="330.4369"/><line style="stroke:#2D333B;stroke-width:0.5;" x1="830.89" x2="897.1341" y1="338.4369" y2="338.4369"/></g><!--class BottomInner--><g class="entity" data-entity="BottomInner" data-source-line="42" data-uid="ent0020" id="entity_BottomInner"><rect fill="#0F1520" height="48" rx="5" ry="5" style="stroke:#2D333B;stroke-width:0.5;" width="119.5957" x="933.22" y="298.4369"/><ellipse cx="948.22" cy="314.4369" fill="#ADD1B2" rx="11" ry="11" style="stroke:#181818;stroke-width:1;"/><path d="M951.1888,320.0775 Q950.6106,320.3744 949.97,320.515 Q949.3294,320.6713 948.6263,320.6713 Q946.1263,320.6713 944.7981,319.0306 Q943.4856,317.3744 943.4856,314.2494 Q943.4856,311.1244 944.7981,309.4681 Q946.1263,307.8119 948.6263,307.8119 Q949.3294,307.8119 949.97,307.9681 Q950.6263,308.1244 951.1888,308.4213 L951.1888,311.14 Q950.5638,310.5619 949.97,310.2963 Q949.3763,310.015 948.7513,310.015 Q947.4075,310.015 946.72,311.0931 Q946.0325,312.1556 946.0325,314.2494 Q946.0325,316.3431 946.72,317.4213 Q947.4075,318.4838 948.7513,318.4838 Q949.3763,318.4838 949.97,318.2181 Q950.5638,317.9369 951.1888,317.3588 L951.1888,320.0775 Z " fill="#000000"/><text fill="#E6EDF3" font-family="sans-serif" font-size="14" lengthAdjust="spacing" textLength="87.5957" x="962.22" y="319.2836">BottomInner</text><line style="stroke:#2D333B;stroke-width:0.5;" x1="934.22" x2="1051.8157" y1="330.4369" y2="330.4369"/><line style="stroke:#2D333B;stroke-width:0.5;" x1="934.22" x2="1051.8157" y1="338.4369" y2="338.4369"/></g><!--class Rim--><g class="entity" data-entity="Rim" data-source-line="43" data-uid="ent0021" id="entity_Rim"><rect fill="#0F1520" height="48" rx="5" ry="5" style="stroke:#2D333B;stroke-width:0.5;" width="59.2549" x="1087.39" y="298.4369"/><ellipse cx="1102.39" cy="314.4369" fill="#ADD1B2" rx="11" ry="11" style="stroke:#181818;stroke-width:1;"/><path d="M1105.3588,320.0775 Q1104.7806,320.3744 1104.14,320.515 Q1103.4994,320.6713 1102.7963,320.6713 Q1100.2963,320.6713 1098.9681,319.0306 Q1097.6556,317.3744 1097.6556,314.2494 Q1097.6556,311.1244 1098.9681,309.4681 Q1100.2963,307.8119 1102.7963,307.8119 Q1103.4994,307.8119 1104.14,307.9681 Q1104.7963,308.1244 1105.3588,308.4213 L1105.3588,311.14 Q1104.7338,310.5619 1104.14,310.2963 Q1103.5463,310.015 1102.9213,310.015 Q1101.5775,310.015 1100.89,311.0931 Q1100.2025,312.1556 1100.2025,314.2494 Q1100.2025,316.3431 1100.89,317.4213 Q1101.5775,318.4838 1102.9213,318.4838 Q1103.5463,318.4838 1104.14,318.2181 Q1104.7338,317.9369 1105.3588,317.3588 L1105.3588,320.0775 Z " fill="#000000"/><text fill="#E6EDF3" font-family="sans-serif" font-size="14" lengthAdjust="spacing" textLength="27.2549" x="1116.39" y="319.2836">Rim</text><line style="stroke:#2D333B;stroke-width:0.5;" x1="1088.39" x2="1145.6449" y1="330.4369" y2="330.4369"/><line style="stroke:#2D333B;stroke-width:0.5;" x1="1088.39" x2="1145.6449" y1="338.4369" y2="338.4369"/></g><!--class InnerLip--><g class="entity" data-entity="InnerLip" data-source-line="44" data-uid="ent0022" id="entity_InnerLip"><rect fill="#0F1520" height="48" rx="5" ry="5" style="stroke:#2D333B;stroke-width:0.5;" width="88.8203" x="1181.6" y="298.4369"/><ellipse cx="1196.6" cy="314.4369" fill="#ADD1B2" rx="11" ry="11" style="stroke:#181818;stroke-width:1;"/><path d="M1199.5688,320.0775 Q1198.9906,320.3744 1198.35,320.515 Q1197.7094,320.6713 1197.0063,320.6713 Q1194.5063,320.6713 1193.1781,319.0306 Q1191.8656,317.3744 1191.8656,314.2494 Q1191.8656,311.1244 1193.1781,309.4681 Q1194.5063,307.8119 1197.0063,307.8119 Q1197.7094,307.8119 1198.35,307.9681 Q1199.0063,308.1244 1199.5688,308.4213 L1199.5688,311.14 Q1198.9438,310.5619 1198.35,310.2963 Q1197.7563,310.015 1197.1313,310.015 Q1195.7875,310.015 1195.1,311.0931 Q1194.4125,312.1556 1194.4125,314.2494 Q1194.4125,316.3431 1195.1,317.4213 Q1195.7875,318.4838 1197.1313,318.4838 Q1197.7563,318.4838 1198.35,318.2181 Q1198.9438,317.9369 1199.5688,317.3588 L1199.5688,320.0775 Z " fill="#000000"/><text fill="#E6EDF3" font-family="sans-serif" font-size="14" lengthAdjust="spacing" textLength="56.8203" x="1210.6" y="319.2836">InnerLip</text><line style="stroke:#2D333B;stroke-width:0.5;" x1="1182.6" x2="1269.4203" y1="330.4369" y2="330.4369"/><line style="stroke:#2D333B;stroke-width:0.5;" x1="1182.6" x2="1269.4203" y1="338.4369" y2="338.4369"/></g><!--class WaterSurface--><g class="entity" data-entity="WaterSurface" data-source-line="45" data-uid="ent0023" id="entity_WaterSurface"><rect fill="#0F1520" height="56.2656" rx="5" ry="5" style="stroke:#2D333B;stroke-width:0.5;" width="127.6143" x="1305.21" y="294.2969"/><ellipse cx="1320.21" cy="314.4297" fill="#ADD1B2" rx="11" ry="11" style="stroke:#181818;stroke-width:1;"/><path d="M1323.1788,320.0703 Q1322.6006,320.3672 1321.96,320.5078 Q1321.3194,320.6641 1320.6163,320.6641 Q1318.1163,320.6641 1316.7881,319.0234 Q1315.4756,317.3672 1315.4756,314.2422 Q1315.4756,311.1172 1316.7881,309.4609 Q1318.1163,307.8047 1320.6163,307.8047 Q1321.3194,307.8047 1321.96,307.9609 Q1322.6163,308.1172 1323.1788,308.4141 L1323.1788,311.1328 Q1322.5538,310.5547 1321.96,310.2891 Q1321.3663,310.0078 1320.7413,310.0078 Q1319.3975,310.0078 1318.71,311.0859 Q1318.0225,312.1484 1318.0225,314.2422 Q1318.0225,316.3359 1318.71,317.4141 Q1319.3975,318.4766 1320.7413,318.4766 Q1321.3663,318.4766 1321.96,318.2109 Q1322.5538,317.9297 1323.1788,317.3516 L1323.1788,320.0703 Z " fill="#000000"/><text fill="#000000" font-family="sans-serif" font-size="12" font-style="italic" lengthAdjust="spacing" textLength="61.8691" x="1351.0826" y="310.4355">&#171;dinamis&#187;</text><text fill="#E6EDF3" font-family="sans-serif" font-size="14" lengthAdjust="spacing" textLength="95.6143" x="1334.21" y="326.2607">WaterSurface</text><line style="stroke:#2D333B;stroke-width:0.5;" x1="1306.21" x2="1431.8243" y1="334.5625" y2="334.5625"/><line style="stroke:#2D333B;stroke-width:0.5;" x1="1306.21" x2="1431.8243" y1="342.5625" y2="342.5625"/></g><!--class Particles--><g class="entity" data-entity="Particles" data-source-line="48" data-uid="ent0024" id="entity_Particles"><rect fill="#0F1520" height="48" rx="5" ry="5" style="stroke:#2D333B;stroke-width:0.5;" width="91.6504" x="1468.19" y="298.4369"/><ellipse cx="1483.19" cy="314.4369" fill="#ADD1B2" rx="11" ry="11" style="stroke:#181818;stroke-width:1;"/><path d="M1486.1588,320.0775 Q1485.5806,320.3744 1484.94,320.515 Q1484.2994,320.6713 1483.5963,320.6713 Q1481.0963,320.6713 1479.7681,319.0306 Q1478.4556,317.3744 1478.4556,314.2494 Q1478.4556,311.1244 1479.7681,309.4681 Q1481.0963,307.8119 1483.5963,307.8119 Q1484.2994,307.8119 1484.94,307.9681 Q1485.5963,308.1244 1486.1588,308.4213 L1486.1588,311.14 Q1485.5338,310.5619 1484.94,310.2963 Q1484.3463,310.015 1483.7213,310.015 Q1482.3775,310.015 1481.69,311.0931 Q1481.0025,312.1556 1481.0025,314.2494 Q1481.0025,316.3431 1481.69,317.4213 Q1482.3775,318.4838 1483.7213,318.4838 Q1484.3463,318.4838 1484.94,318.2181 Q1485.5338,317.9369 1486.1588,317.3588 L1486.1588,320.0775 Z " fill="#000000"/><text fill="#E6EDF3" font-family="sans-serif" font-size="14" lengthAdjust="spacing" textLength="59.6504" x="1497.19" y="319.2836">Particles</text><line style="stroke:#2D333B;stroke-width:0.5;" x1="1469.19" x2="1558.8404" y1="330.4369" y2="330.4369"/><line style="stroke:#2D333B;stroke-width:0.5;" x1="1469.19" x2="1558.8404" y1="338.4369" y2="338.4369"/></g><!--class Puddle--><g class="entity" data-entity="Puddle" data-source-line="49" data-uid="ent0025" id="entity_Puddle"><rect fill="#0F1520" height="48" rx="5" ry="5" style="stroke:#2D333B;stroke-width:0.5;" width="79.5918" x="1595.22" y="298.4369"/><ellipse cx="1610.22" cy="314.4369" fill="#ADD1B2" rx="11" ry="11" style="stroke:#181818;stroke-width:1;"/><path d="M1613.1888,320.0775 Q1612.6106,320.3744 1611.97,320.515 Q1611.3294,320.6713 1610.6263,320.6713 Q1608.1263,320.6713 1606.7981,319.0306 Q1605.4856,317.3744 1605.4856,314.2494 Q1605.4856,311.1244 1606.7981,309.4681 Q1608.1263,307.8119 1610.6263,307.8119 Q1611.3294,307.8119 1611.97,307.9681 Q1612.6263,308.1244 1613.1888,308.4213 L1613.1888,311.14 Q1612.5638,310.5619 1611.97,310.2963 Q1611.3763,310.015 1610.7513,310.015 Q1609.4075,310.015 1608.72,311.0931 Q1608.0325,312.1556 1608.0325,314.2494 Q1608.0325,316.3431 1608.72,317.4213 Q1609.4075,318.4838 1610.7513,318.4838 Q1611.3763,318.4838 1611.97,318.2181 Q1612.5638,317.9369 1613.1888,317.3588 L1613.1888,320.0775 Z " fill="#000000"/><text fill="#E6EDF3" font-family="sans-serif" font-size="14" lengthAdjust="spacing" textLength="47.5918" x="1624.22" y="319.2836">Puddle</text><line style="stroke:#2D333B;stroke-width:0.5;" x1="1596.22" x2="1673.8118" y1="330.4369" y2="330.4369"/><line style="stroke:#2D333B;stroke-width:0.5;" x1="1596.22" x2="1673.8118" y1="338.4369" y2="338.4369"/></g><!--class HemisphereLight--><g class="entity" data-entity="HemisphereLight" data-source-line="52" data-uid="ent0026" id="entity_HemisphereLight"><rect fill="#0F1520" height="48" rx="5" ry="5" style="stroke:#2D333B;stroke-width:0.5;" width="151.6426" x="1710.19" y="298.4369"/><ellipse cx="1725.19" cy="314.4369" fill="#ADD1B2" rx="11" ry="11" style="stroke:#181818;stroke-width:1;"/><path d="M1728.1588,320.0775 Q1727.5806,320.3744 1726.94,320.515 Q1726.2994,320.6713 1725.5963,320.6713 Q1723.0963,320.6713 1721.7681,319.0306 Q1720.4556,317.3744 1720.4556,314.2494 Q1720.4556,311.1244 1721.7681,309.4681 Q1723.0963,307.8119 1725.5963,307.8119 Q1726.2994,307.8119 1726.94,307.9681 Q1727.5963,308.1244 1728.1588,308.4213 L1728.1588,311.14 Q1727.5338,310.5619 1726.94,310.2963 Q1726.3463,310.015 1725.7213,310.015 Q1724.3775,310.015 1723.69,311.0931 Q1723.0025,312.1556 1723.0025,314.2494 Q1723.0025,316.3431 1723.69,317.4213 Q1724.3775,318.4838 1725.7213,318.4838 Q1726.3463,318.4838 1726.94,318.2181 Q1727.5338,317.9369 1728.1588,317.3588 L1728.1588,320.0775 Z " fill="#000000"/><text fill="#E6EDF3" font-family="sans-serif" font-size="14" lengthAdjust="spacing" textLength="119.6426" x="1739.19" y="319.2836">HemisphereLight</text><line style="stroke:#2D333B;stroke-width:0.5;" x1="1711.19" x2="1860.8326" y1="330.4369" y2="330.4369"/><line style="stroke:#2D333B;stroke-width:0.5;" x1="1711.19" x2="1860.8326" y1="338.4369" y2="338.4369"/></g><!--class DirectionalLight--><g class="entity" data-entity="DirectionalLight" data-source-line="53" data-uid="ent0027" id="entity_DirectionalLight"><rect fill="#0F1520" height="48" rx="5" ry="5" style="stroke:#2D333B;stroke-width:0.5;" width="142.9609" x="1896.53" y="298.4369"/><ellipse cx="1911.53" cy="314.4369" fill="#ADD1B2" rx="11" ry="11" style="stroke:#181818;stroke-width:1;"/><path d="M1914.4988,320.0775 Q1913.9206,320.3744 1913.28,320.515 Q1912.6394,320.6713 1911.9363,320.6713 Q1909.4363,320.6713 1908.1081,319.0306 Q1906.7956,317.3744 1906.7956,314.2494 Q1906.7956,311.1244 1908.1081,309.4681 Q1909.4363,307.8119 1911.9363,307.8119 Q1912.6394,307.8119 1913.28,307.9681 Q1913.9363,308.1244 1914.4988,308.4213 L1914.4988,311.14 Q1913.8738,310.5619 1913.28,310.2963 Q1912.6863,310.015 1912.0613,310.015 Q1910.7175,310.015 1910.03,311.0931 Q1909.3425,312.1556 1909.3425,314.2494 Q1909.3425,316.3431 1910.03,317.4213 Q1910.7175,318.4838 1912.0613,318.4838 Q1912.6863,318.4838 1913.28,318.2181 Q1913.8738,317.9369 1914.4988,317.3588 L1914.4988,320.0775 Z " fill="#000000"/><text fill="#E6EDF3" font-family="sans-serif" font-size="14" lengthAdjust="spacing" textLength="110.9609" x="1925.53" y="319.2836">DirectionalLight</text><line style="stroke:#2D333B;stroke-width:0.5;" x1="1897.53" x2="2038.4909" y1="330.4369" y2="330.4369"/><line style="stroke:#2D333B;stroke-width:0.5;" x1="1897.53" x2="2038.4909" y1="338.4369" y2="338.4369"/></g><g class="entity" data-entity="GMN53" data-source-line="90" data-uid="ent0054" id="entity_GMN53"><path d="M136.28,436.4369 L136.28,447.5669 L101.22,451.5669 L136.28,455.5669 L136.28,466.7025 A5,5 0 0 0 141.28,471.7025 L422.7409,471.7025 A5,5 0 0 0 427.7409,466.7025 L427.7409,441.4369 L417.7409,431.4369 L141.28,431.4369 A5,5 0 0 0 136.28,436.4369" fill="#FEFFDD" style="stroke:#181818;stroke-width:0.5;"/><path d="M417.7409,431.4369 L417.7409,438.9369 A2.5,2.5 0 0 0 420.2409,441.4369 L427.7409,441.4369 L417.7409,431.4369" fill="#FEFFDD" style="stroke:#181818;stroke-width:0.5;"/><text fill="#000000" font-family="sans-serif" font-size="13" lengthAdjust="spacing" textLength="175.2397" x="142.28" y="448.5038">Titik keluarnya partikel air.</text><text fill="#000000" font-family="sans-serif" font-size="13" lengthAdjust="spacing" textLength="270.4609" x="142.28" y="463.6366">Terkait gravitasi &amp; noise di WaterEmitter.</text></g><g class="entity" data-entity="GMN56" data-source-line="95" data-uid="ent0057" id="entity_GMN56"><path d="M1212.74,436.4369 L1212.74,466.7025 A5,5 0 0 0 1217.74,471.7025 L1520.2942,471.7025 A5,5 0 0 0 1525.2942,466.7025 L1525.2942,441.4369 L1515.2942,431.4369 L1373.01,431.4369 L1369.01,351.0169 L1365.01,431.4369 L1217.74,431.4369 A5,5 0 0 0 1212.74,436.4369" fill="#FEFFDD" style="stroke:#181818;stroke-width:0.5;"/><path d="M1515.2942,431.4369 L1515.2942,438.9369 A2.5,2.5 0 0 0 1517.7942,441.4369 L1525.2942,441.4369 L1515.2942,431.4369" fill="#FEFFDD" style="stroke:#181818;stroke-width:0.5;"/><text fill="#000000" font-family="sans-serif" font-size="13" lengthAdjust="spacing" textLength="291.5542" x="1218.74" y="448.5038">Tinggi permukaan berubah saat ember terisi</text><text fill="#000000" font-family="sans-serif" font-size="13" lengthAdjust="spacing" textLength="208.5776" x="1218.74" y="463.6366">dan saat overflow (reset siklus).</text></g><!--reverse link Scene to Wall--><g class="link" data-entity-1="Scene" data-entity-2="Wall" data-source-line="56" data-uid="lnk28" id="link_Scene_Wall"><path codeLine="56" d="M1004.2133,71.3308 C900.2733,76.2208 614.45,95.5769 380.01,169.2969 C374.19,171.1369 368.16,173.5169 362.41,176.0569" fill="none" id="Scene-backto-Wall" style="stroke:#8B949E;stroke-width:1;"/><polygon fill="#8B949E" points="1016.2,70.7669,1010.0187,67.0533,1004.2133,71.3308,1010.3946,75.0444,1016.2,70.7669" style="stroke:#8B949E;stroke-width:1;"/><text fill="#000000" font-family="sans-serif" font-size="13" lengthAdjust="spacing" textLength="55.3008" x="563.01" y="135.3638">memiliki</text></g><!--reverse link Scene to FaucetRoot--><g class="link" data-entity-1="Scene" data-entity-2="FaucetRoot" data-source-line="57" data-uid="lnk29" id="link_Scene_FaucetRoot"><path codeLine="57" d="M1004.6636,79.4026 C902.3836,100.3326 630.43,155.9869 509.16,180.8069" fill="none" id="Scene-backto-FaucetRoot" style="stroke:#8B949E;stroke-width:1;"/><polygon fill="#8B949E" points="1016.42,76.9969,1009.7399,74.281,1004.6636,79.4026,1011.3437,82.1185,1016.42,76.9969" style="stroke:#8B949E;stroke-width:1;"/><text fill="#000000" font-family="sans-serif" font-size="13" lengthAdjust="spacing" textLength="55.3008" x="791.01" y="135.3638">memiliki</text></g><!--reverse link Scene to Bucket--><g class="link" data-entity-1="Scene" data-entity-2="Bucket" data-source-line="58" data-uid="lnk30" id="link_Scene_Bucket"><path codeLine="58" d="M1054.01,104.7269 C1054.01,126.6169 1054.01,147.1069 1054.01,168.9669" fill="none" id="Scene-backto-Bucket" style="stroke:#8B949E;stroke-width:1;"/><polygon fill="#8B949E" points="1054.01,92.7269,1050.01,98.7269,1054.01,104.7269,1058.01,98.7269,1054.01,92.7269" style="stroke:#8B949E;stroke-width:1;"/><text fill="#000000" font-family="sans-serif" font-size="13" lengthAdjust="spacing" textLength="55.3008" x="1055.01" y="135.3638">memiliki</text></g><!--reverse link Scene to WaterEmitter--><g class="link" data-entity-1="Scene" data-entity-2="WaterEmitter" data-source-line="59" data-uid="lnk31" id="link_Scene_WaterEmitter"><path codeLine="59" d="M1103.2526,82.4671 C1182.0026,103.5271 1353.27,149.3169 1450.53,175.3269" fill="none" id="Scene-backto-WaterEmitter" style="stroke:#8B949E;stroke-width:1;"/><polygon fill="#8B949E" points="1091.66,79.3669,1096.4229,84.7812,1103.2526,82.4671,1098.4897,77.0528,1091.66,79.3669" style="stroke:#8B949E;stroke-width:1;"/><text fill="#000000" font-family="sans-serif" font-size="13" lengthAdjust="spacing" textLength="55.3008" x="1313.01" y="135.3638">memiliki</text></g><!--reverse link Scene to Lights--><g class="link" data-entity-1="Scene" data-entity-2="Lights" data-source-line="60" data-uid="lnk32" id="link_Scene_Lights"><path codeLine="60" d="M1103.6654,77.3371 C1163.9954,87.1171 1273.89,105.0169 1377.01,122.2969 C1513.96,145.2569 1676.55,173.3269 1748.53,185.7969" fill="none" id="Scene-backto-Lights" style="stroke:#8B949E;stroke-width:1;"/><polygon fill="#8B949E" points="1091.82,75.4169,1097.1026,80.3254,1103.6654,77.3371,1098.3828,72.4285,1091.82,75.4169" style="stroke:#8B949E;stroke-width:1;"/><text fill="#000000" font-family="sans-serif" font-size="13" lengthAdjust="spacing" textLength="55.3008" x="1468.01" y="135.3638">memiliki</text></g><!--reverse link FaucetRoot to Flange--><g class="link" data-entity-1="FaucetRoot" data-entity-2="Flange" data-source-line="62" data-uid="lnk33" id="link_FaucetRoot_Flange"><path codeLine="62" d="M385.1243,216.3595 C379.5243,217.8895 385.47,216.1269 380.01,217.2969 C268.43,241.2169 228.01,198.1769 125.01,247.2969 C100.89,258.8069 79.71,281.0569 65.88,298.1969" fill="none" id="FaucetRoot-backto-Flange" style="stroke:#8B949E;stroke-width:1;"/><polygon fill="#8B949E" points="396.7,213.1969,389.8579,210.9196,385.1243,216.3595,391.9664,218.6368,396.7,213.1969" style="stroke:#8B949E;stroke-width:1;"/><text fill="#000000" font-family="sans-serif" font-size="13" lengthAdjust="spacing" textLength="68.5674" x="126.01" y="260.3638">terdiri dari</text></g><!--reverse link FaucetRoot to Stub--><g class="link" data-entity-1="FaucetRoot" data-entity-2="Stub" data-source-line="63" data-uid="lnk34" id="link_FaucetRoot_Stub"><path codeLine="63" d="M385.4855,216.0114 C379.7655,217.6714 385.55,215.8969 380.01,217.2969 C311.56,234.6069 285.53,212.6569 224.01,247.2969 C202.4,259.4769 184.03,281.1769 172.02,297.9669" fill="none" id="FaucetRoot-backto-Stub" style="stroke:#8B949E;stroke-width:1;"/><polygon fill="#8B949E" points="397.01,212.6669,390.1329,210.4976,385.4855,216.0114,392.3626,218.1806,397.01,212.6669" style="stroke:#8B949E;stroke-width:1;"/><text fill="#000000" font-family="sans-serif" font-size="13" lengthAdjust="spacing" textLength="68.5674" x="225.01" y="260.3638">terdiri dari</text></g><!--reverse link FaucetRoot to BulgeBody--><g class="link" data-entity-1="FaucetRoot" data-entity-2="BulgeBody" data-source-line="64" data-uid="lnk35" id="link_FaucetRoot_BulgeBody"><path codeLine="64" d="M385.7147,217.6605 C350.4247,230.2205 321.62,241.3069 315.01,247.2969 C300,260.9369 290.3,282.0369 284.62,298.2469" fill="none" id="FaucetRoot-backto-BulgeBody" style="stroke:#8B949E;stroke-width:1;"/><polygon fill="#8B949E" points="397.02,213.6369,390.0261,211.8803,385.7147,217.6605,392.7086,219.4171,397.02,213.6369" style="stroke:#8B949E;stroke-width:1;"/><text fill="#000000" font-family="sans-serif" font-size="13" lengthAdjust="spacing" textLength="68.5674" x="316.01" y="260.3638">terdiri dari</text></g><!--reverse link FaucetRoot to Joint--><g class="link" data-entity-1="FaucetRoot" data-entity-2="Joint" data-source-line="65" data-uid="lnk36" id="link_FaucetRoot_Joint"><path codeLine="65" d="M410.6356,225.8343 C401.6156,234.0443 401.88,235.9869 397.01,247.2969 C390.14,263.2669 390.8,283.0069 392.95,298.1069" fill="none" id="FaucetRoot-backto-Joint" style="stroke:#8B949E;stroke-width:1;"/><polygon fill="#8B949E" points="419.51,217.7569,412.3803,218.8375,410.6356,225.8343,417.7653,224.7537,419.51,217.7569" style="stroke:#8B949E;stroke-width:1;"/><text fill="#000000" font-family="sans-serif" font-size="13" lengthAdjust="spacing" textLength="68.5674" x="398.01" y="260.3638">terdiri dari</text></g><!--reverse link FaucetRoot to Spout--><g class="link" data-entity-1="FaucetRoot" data-entity-2="Spout" data-source-line="66" data-uid="lnk37" id="link_FaucetRoot_Spout"><path codeLine="66" d="M466.0581,228.8435 C474.7181,251.7835 483.63,275.3769 492.27,298.2669" fill="none" id="FaucetRoot-backto-Spout" style="stroke:#8B949E;stroke-width:1;"/><polygon fill="#8B949E" points="461.82,217.6169,460.1968,224.6429,466.0581,228.8435,467.6813,221.8175,461.82,217.6169" style="stroke:#8B949E;stroke-width:1;"/><text fill="#000000" font-family="sans-serif" font-size="13" lengthAdjust="spacing" textLength="68.5674" x="480.01" y="260.3638">terdiri dari</text></g><!--reverse link FaucetRoot to HandlePivot--><g class="link" data-entity-1="FaucetRoot" data-entity-2="HandlePivot" data-source-line="67" data-uid="lnk38" id="link_FaucetRoot_HandlePivot"><path codeLine="67" d="M517.7947,223.0602 C534.4847,231.3602 541.73,236.1069 557.01,247.2969 C577.12,262.0269 596.77,282.4269 610.6,298.0869" fill="none" id="FaucetRoot-backto-HandlePivot" style="stroke:#8B949E;stroke-width:1;"/><polygon fill="#8B949E" points="507.05,217.7169,510.6412,223.9701,517.7947,223.0602,514.2035,216.807,507.05,217.7169" style="stroke:#8B949E;stroke-width:1;"/><text fill="#000000" font-family="sans-serif" font-size="13" lengthAdjust="spacing" textLength="68.5674" x="578.01" y="260.3638">terdiri dari</text></g><!--reverse link Spout to Aerator--><g class="link" data-entity-1="Spout" data-entity-2="Aerator" data-source-line="69" data-uid="lnk39" id="link_Spout_Aerator"><path codeLine="69" d="M502.1266,358.751 C502.8466,381.681 503.57,404.5069 504.29,427.3969" fill="none" id="Spout-backto-Aerator" style="stroke:#8B949E;stroke-width:1;"/><polygon fill="#8B949E" points="501.75,346.7569,497.9403,352.8795,502.1266,358.751,505.9363,352.6284,501.75,346.7569" style="stroke:#8B949E;stroke-width:1;"/><text fill="#000000" font-family="sans-serif" font-size="13" lengthAdjust="spacing" textLength="68.5674" x="505.01" y="393.6338">terdiri dari</text></g><!--reverse link Spout to SpoutTip--><g class="link" data-entity-1="Spout" data-entity-2="SpoutTip" data-source-line="70" data-uid="lnk40" id="link_Spout_SpoutTip"><path codeLine="70" d="M453.4731,348.3872 C447.7731,351.0572 452.73,348.4869 447.01,350.5669 C306.25,401.6469 262.7,385.4169 119.01,427.5669 C113.27,429.2469 107.29,431.1569 101.39,433.1269" fill="none" id="Spout-backto-SpoutTip" style="stroke:#8B949E;stroke-width:1;"/><polygon fill="#8B949E" points="464.34,343.2969,457.2098,342.2197,453.4731,348.3872,460.6033,349.4643,464.34,343.2969" style="stroke:#8B949E;stroke-width:1;"/><text fill="#000000" font-family="sans-serif" font-size="13" lengthAdjust="spacing" textLength="138.7407" x="343.01" y="393.6338">ujung / emitter-origin</text></g><!--reverse link HandlePivot to Lever--><g class="link" data-entity-1="HandlePivot" data-entity-2="Lever" data-source-line="72" data-uid="lnk41" id="link_HandlePivot_Lever"><path codeLine="72" d="M621.9779,358.6595 C619.8179,368.9195 620.08,369.4069 619.01,380.5669 C618.3,388.0869 618.8,390.0169 619.01,397.5669 C619.29,407.2369 619.84,417.8969 620.4,427.0969" fill="none" id="HandlePivot-backto-Lever" style="stroke:#8B949E;stroke-width:1;"/><polygon fill="#8B949E" points="624.45,346.9169,619.2997,351.9641,621.9779,358.6595,627.1281,353.6122,624.45,346.9169" style="stroke:#8B949E;stroke-width:1;"/><text fill="#000000" font-family="sans-serif" font-size="13" lengthAdjust="spacing" textLength="68.5674" x="620.01" y="393.6338">terdiri dari</text></g><!--reverse link HandlePivot to Knob--><g class="link" data-entity-1="HandlePivot" data-entity-2="Knob" data-source-line="73" data-uid="lnk42" id="link_HandlePivot_Knob"><path codeLine="73" d="M668.6126,354.5095 C679.8926,364.2495 683.28,368.3069 693.01,380.5669 C704.44,394.9469 714.45,413.1069 721.47,427.3269" fill="none" id="HandlePivot-backto-Knob" style="stroke:#8B949E;stroke-width:1;"/><polygon fill="#8B949E" points="659.53,346.6669,661.4571,353.6157,668.6126,354.5095,666.6855,347.5606,659.53,346.6669" style="stroke:#8B949E;stroke-width:1;"/><text fill="#000000" font-family="sans-serif" font-size="13" lengthAdjust="spacing" textLength="68.5674" x="706.01" y="393.6338">terdiri dari</text></g><!--reverse link Bucket to Outer--><g class="link" data-entity-1="Bucket" data-entity-2="Outer" data-source-line="75" data-uid="lnk43" id="link_Bucket_Outer"><path codeLine="75" d="M1001.4637,197.4495 C953.6437,201.5395 885.2,212.4569 826.01,247.2969 C804.64,259.8869 786.24,281.5469 774.16,298.2069" fill="none" id="Bucket-backto-Outer" style="stroke:#8B949E;stroke-width:1;"/><polygon fill="#8B949E" points="1013.42,196.4269,1007.101,192.9527,1001.4637,197.4495,1007.7827,200.9236,1013.42,196.4269" style="stroke:#8B949E;stroke-width:1;"/><text fill="#000000" font-family="sans-serif" font-size="13" lengthAdjust="spacing" textLength="68.5674" x="827.01" y="260.3638">terdiri dari</text></g><!--reverse link Bucket to Inner--><g class="link" data-entity-1="Bucket" data-entity-2="Inner" data-source-line="76" data-uid="lnk44" id="link_Bucket_Inner"><path codeLine="76" d="M1002.0574,207.3779 C973.8274,215.5879 947.89,226.0969 920.01,247.2969 C902.04,260.9669 886.98,281.8569 877.02,297.9869" fill="none" id="Bucket-backto-Inner" style="stroke:#8B949E;stroke-width:1;"/><polygon fill="#8B949E" points="1013.58,204.0269,1006.7017,201.8615,1002.0574,207.3779,1008.9357,209.5433,1013.58,204.0269" style="stroke:#8B949E;stroke-width:1;"/><text fill="#000000" font-family="sans-serif" font-size="13" lengthAdjust="spacing" textLength="68.5674" x="921.01" y="260.3638">terdiri dari</text></g><!--reverse link Bucket to BottomInner--><g class="link" data-entity-1="Bucket" data-entity-2="BottomInner" data-source-line="77" data-uid="lnk45" id="link_Bucket_BottomInner"><path codeLine="77" d="M1016.865,226.0321 C1008.315,234.4821 1008.35,236.2669 1003.01,247.2969 C995.39,263.0869 993.02,282.8369 992.49,297.9869" fill="none" id="Bucket-backto-BottomInner" style="stroke:#8B949E;stroke-width:1;"/><polygon fill="#8B949E" points="1025.4,217.5969,1018.3207,218.9695,1016.865,226.0321,1023.9442,224.6595,1025.4,217.5969" style="stroke:#8B949E;stroke-width:1;"/><text fill="#000000" font-family="sans-serif" font-size="13" lengthAdjust="spacing" textLength="68.5674" x="1004.01" y="260.3638">terdiri dari</text></g><!--reverse link Bucket to Rim--><g class="link" data-entity-1="Bucket" data-entity-2="Rim" data-source-line="78" data-uid="lnk46" id="link_Bucket_Rim"><path codeLine="78" d="M1070.899,228.3687 C1082.269,251.3087 1094.19,275.3769 1105.53,298.2669" fill="none" id="Bucket-backto-Rim" style="stroke:#8B949E;stroke-width:1;"/><polygon fill="#8B949E" points="1065.57,217.6169,1064.6506,224.7691,1070.899,228.3687,1071.8185,221.2164,1065.57,217.6169" style="stroke:#8B949E;stroke-width:1;"/><text fill="#000000" font-family="sans-serif" font-size="13" lengthAdjust="spacing" textLength="68.5674" x="1089.01" y="260.3638">terdiri dari</text></g><!--reverse link Bucket to InnerLip--><g class="link" data-entity-1="Bucket" data-entity-2="InnerLip" data-source-line="79" data-uid="lnk47" id="link_Bucket_InnerLip"><path codeLine="79" d="M1105.7193,212.8196 C1128.1593,221.8096 1144.62,230.4869 1166.01,247.2969 C1184.11,261.5269 1200.24,282.1569 1211.21,298.0469" fill="none" id="Bucket-backto-InnerLip" style="stroke:#8B949E;stroke-width:1;"/><polygon fill="#8B949E" points="1094.58,208.3569,1098.6621,214.3013,1105.7193,212.8196,1101.6372,206.8751,1094.58,208.3569" style="stroke:#8B949E;stroke-width:1;"/><text fill="#000000" font-family="sans-serif" font-size="13" lengthAdjust="spacing" textLength="68.5674" x="1185.01" y="260.3638">terdiri dari</text></g><!--reverse link Bucket to WaterSurface--><g class="link" data-entity-1="Bucket" data-entity-2="WaterSurface" data-source-line="80" data-uid="lnk48" id="link_Bucket_WaterSurface"><path codeLine="80" d="M1106.3716,202.2305 C1149.3616,209.5105 1206.74,222.1069 1262.01,247.2969 C1288.75,259.4869 1315.92,278.4169 1336.2,294.0969" fill="none" id="Bucket-backto-WaterSurface" style="stroke:#8B949E;stroke-width:1;"/><polygon fill="#8B949E" points="1094.54,200.2269,1099.7879,205.1725,1106.3716,202.2305,1101.1236,197.2848,1094.54,200.2269" style="stroke:#8B949E;stroke-width:1;"/><text fill="#000000" font-family="sans-serif" font-size="13" lengthAdjust="spacing" textLength="95.2529" x="1295.01" y="260.3638">permukaan air</text></g><!--reverse link WaterEmitter to Particles--><g class="link" data-entity-1="WaterEmitter" data-entity-2="Particles" data-source-line="82" data-uid="lnk49" id="link_WaterEmitter_Particles"><path codeLine="82" d="M1514.01,229.6169 C1514.01,252.5569 1514.01,275.3769 1514.01,298.2669" fill="none" id="WaterEmitter-backto-Particles" style="stroke:#8B949E;stroke-width:1;"/><polygon fill="#8B949E" points="1514.01,217.6169,1510.01,223.6169,1514.01,229.6169,1518.01,223.6169,1514.01,217.6169" style="stroke:#8B949E;stroke-width:1;"/><text fill="#000000" font-family="sans-serif" font-size="13" lengthAdjust="spacing" textLength="70.4653" x="1515.01" y="260.3638">partikel air</text></g><!--reverse link WaterEmitter to Puddle--><g class="link" data-entity-1="WaterEmitter" data-entity-2="Puddle" data-source-line="83" data-uid="lnk50" id="link_WaterEmitter_Puddle"><path codeLine="83" d="M1567.3257,224.0436 C1580.1657,232.2936 1583.51,235.9169 1594.01,247.2969 C1607.78,262.2169 1618.62,282.5869 1625.69,298.2069" fill="none" id="WaterEmitter-backto-Puddle" style="stroke:#8B949E;stroke-width:1;"/><polygon fill="#8B949E" points="1557.23,217.5569,1560.1156,224.1655,1567.3257,224.0436,1564.4401,217.435,1557.23,217.5569" style="stroke:#8B949E;stroke-width:1;"/><text fill="#000000" font-family="sans-serif" font-size="13" lengthAdjust="spacing" textLength="105.7773" x="1608.01" y="260.3638">genangan lantai</text></g><!--reverse link Lights to HemisphereLight--><g class="link" data-entity-1="Lights" data-entity-2="HemisphereLight" data-source-line="85" data-uid="lnk51" id="link_Lights_HemisphereLight"><path codeLine="85" d="M1786.01,229.6169 C1786.01,252.5569 1786.01,275.3769 1786.01,298.2669" fill="none" id="Lights-backto-HemisphereLight" style="stroke:#8B949E;stroke-width:1;"/><polygon fill="#8B949E" points="1786.01,217.6169,1782.01,223.6169,1786.01,229.6169,1790.01,223.6169,1786.01,217.6169" style="stroke:#8B949E;stroke-width:1;"/><text fill="#000000" font-family="sans-serif" font-size="13" lengthAdjust="spacing" textLength="131.4536" x="1787.01" y="260.3638">pencahayaan global</text></g><!--reverse link Lights to DirectionalLight--><g class="link" data-entity-1="Lights" data-entity-2="DirectionalLight" data-source-line="86" data-uid="lnk52" id="link_Lights_DirectionalLight"><path codeLine="86" d="M1835.2574,203.5949 C1866.0074,210.6349 1897.43,221.7369 1927.01,247.2969 C1942.71,260.8569 1953.55,281.9669 1960.13,298.2069" fill="none" id="Lights-backto-DirectionalLight" style="stroke:#8B949E;stroke-width:1;"/><polygon fill="#8B949E" points="1823.56,200.9169,1828.516,206.155,1835.2574,203.5949,1830.3014,198.3568,1823.56,200.9169" style="stroke:#8B949E;stroke-width:1;"/><text fill="#000000" font-family="sans-serif" font-size="13" lengthAdjust="spacing" textLength="93.0439" x="1941.01" y="260.3638">cahaya utama</text></g><!--SRC=[dLLHJzim47xFhpXf4eD9PR1kqq3R96133D10WBJdIt9DRt7iodP0QEA_x-oagGcCIciVQjzzlk_k_9tx6hx81swmMR123HlWgS5ep5pDUe4M6yYng2jhMbqU6MKiU8lQYOkqJr1kZgMvOrt139MZn7DWhRdhZhxwbE-ztqkTHmgTWpyPmE68vjNERFV3kvtWCROasrlVbTFfD1VhiT6-jz57AcVJx269UodHiAB_YFmmJlrcpaMjITBSJLnNNJohoSBkJfPvzehWX2tQck4Y_qtrFfoHz6holSd9JWxOmkPrGPfW-cqhorvtpVzfIeBMuxBlHMn8nFNhNwXKlpp6jY1_POpl3OTjKPCVW9xizuQz_FIcSwxctWraPwPP64sw3vGo7ei0gYNbjM_pWK5LT6ZA-tv_QbWl2QyNfbsk3wHKRspgkU55lpr1NIgwvDiXyNEw7P8yqoP_cc9NMfhYHRigx8VMm_hGU6-Qr7B5JOex7nA9BRfkxGmBWi-VIzROiFlwzIbztyUK_nAjvqAHM-xRKgeQZfwIPWTAXgbDJvsGC2pcP2bUHc_znfOApqQZwipBA5SaVfQXgrYaKw9bs2n2Keu37DvC9bjT-4vBieyAWNreX4bnpObd9PZd_NsJd_MbSdeUqQahzMK9OUIFgXA4n2XPQWa5ZK51RMiWWmhNuA8wrz45RQx1988T8xFkV43rcXyZLe3b60YY_TtAs_WMg6len5YkM6TPoXHx6WPZ774C2XFp9A_-BeC_JieOaFZZLBpWJoRg1PHCsJgEyrZxlo2Ffd4V5cIRjaRv8qAsMVP8Vm4-p5_0XdLDAaAV8kDa2gmYBGAKYA93ZzAaNhBnZXyFPan05pZ7-v12fKoEAiMFHrOETEZk-Huc-0YzV3NCvC9TX7VpgeqdiF6acQrUI80RcUmQf9WMhPPmQMtRmK-sHlPGMRnb7rw73T267K79ZwPqEoDTGk39EhOytcEWIriTANLLST9n-OTgSvo3G_IYKTc6MsF70Yx57-r6f3bJvWusBJcvGyUrQjtMYlOl]--></g></svg>